<svg id="visual" viewBox="0 0 900 600" width="900" height="600" xmlns="http://www.w3.org/2000/svg" xmlns:xlink="http://www.w3.org/1999/xlink" version="1.1"><g stroke-width="1" stroke-linejoin="bevel"><path d="M461 278.9L526 258.4L450 254.1Z" fill="#c9c9e6" stroke="#c9c9e6"></path><path d="M526 258.4L449 227.4L450 254.1Z" fill="#9694df" stroke="#9694df"></path><path d="M526 258.4L468 162.1L449 227.4Z" fill="#a3a1e1" stroke="#a3a1e1"></path><path d="M468 162.1L376 230.1L449 227.4Z" fill="#c9c9e6" stroke="#c9c9e6"></path><path d="M449 227.4L376 230.1L450 254.1Z" fill="#a3a1e1" stroke="#a3a1e1"></path><path d="M450 254.1L376 230.1L461 278.9Z" fill="#716dd7" stroke="#716dd7"></path><path d="M481 400.9L533 361.6L461 278.9Z" fill="#c9c9e6" stroke="#c9c9e6"></path><path d="M461 278.9L533 361.6L526 258.4Z" fill="#c9c9e6" stroke="#c9c9e6"></path><path d="M364 0L354 231.4L376 230.1Z" fill="#9694df" stroke="#9694df"></path><path d="M385 428.3L454 402.6L302 341.9Z" fill="#716dd7" stroke="#716dd7"></path><path d="M533 361.6L634 274.9L526 258.4Z" fill="#c9c9e6" stroke="#c9c9e6"></path><path d="M526 258.4L627 178.7L468 162.1Z" fill="#c9c9e6" stroke="#c9c9e6"></path><path d="M454 402.6L481 400.9L461 278.9Z" fill="#7d7ada" stroke="#7d7ada"></path><path d="M303 290.9L461 278.9L376 230.1Z" fill="#9694df" stroke="#9694df"></path><path d="M634 274.9L627 178.7L526 258.4Z" fill="#716dd7" stroke="#716dd7"></path><path d="M627 178.7L531 86.7L468 162.1Z" fill="#8a87dd" stroke="#8a87dd"></path><path d="M468 162.1L433 24.7L376 230.1Z" fill="#8a87dd" stroke="#8a87dd"></path><path d="M354 231.4L303 290.9L376 230.1Z" fill="#c9c9e6" stroke="#c9c9e6"></path><path d="M634 274.9L668 183.4L627 178.7Z" fill="#a3a1e1" stroke="#a3a1e1"></path><path d="M652 0L579 0L531 86.7Z" fill="#7d7ada" stroke="#7d7ada"></path><path d="M302 341.9L454 402.6L461 278.9Z" fill="#9694df" stroke="#9694df"></path><path d="M454 402.6L431 449.6L481 400.9Z" fill="#8a87dd" stroke="#8a87dd"></path><path d="M385 428.3L431 449.6L454 402.6Z" fill="#c9c9e6" stroke="#c9c9e6"></path><path d="M712 406.6L683 329.1L676 466.3Z" fill="#7d7ada" stroke="#7d7ada"></path><path d="M533 361.6L683 329.1L634 274.9Z" fill="#5553d1" stroke="#5553d1"></path><path d="M303 290.9L302 341.9L461 278.9Z" fill="#5553d1" stroke="#5553d1"></path><path d="M683 329.1L533 361.6L676 466.3Z" fill="#8a87dd" stroke="#8a87dd"></path><path d="M715 269.9L686 180.7L668 183.4Z" fill="#c9c9e6" stroke="#c9c9e6"></path><path d="M715 269.9L668 183.4L634 274.9Z" fill="#afaee3" stroke="#afaee3"></path><path d="M652 0L531 86.7L627 178.7Z" fill="#4646cd" stroke="#4646cd"></path><path d="M683 329.1L715 269.9L634 274.9Z" fill="#716dd7" stroke="#716dd7"></path><path d="M494 0L433 24.7L531 86.7Z" fill="#c9c9e6" stroke="#c9c9e6"></path><path d="M531 86.7L433 24.7L468 162.1Z" fill="#c9c9e6" stroke="#c9c9e6"></path><path d="M354 231.4L208 224.1L303 290.9Z" fill="#9694df" stroke="#9694df"></path><path d="M579 0L494 0L531 86.7Z" fill="#716dd7" stroke="#716dd7"></path><path d="M494 0L399 0L433 24.7Z" fill="#bcbce5" stroke="#bcbce5"></path><path d="M433 24.7L364 0L376 230.1Z" fill="#8a87dd" stroke="#8a87dd"></path><path d="M652 0L627 178.7L668 183.4Z" fill="#9694df" stroke="#9694df"></path><path d="M544 522.6L533 361.6L481 400.9Z" fill="#9694df" stroke="#9694df"></path><path d="M783 309.1L763 265.4L715 269.9Z" fill="#716dd7" stroke="#716dd7"></path><path d="M783 309.1L715 269.9L683 329.1Z" fill="#716dd7" stroke="#716dd7"></path><path d="M715 269.9L789 213.1L686 180.7Z" fill="#7d7ada" stroke="#7d7ada"></path><path d="M686 180.7L652 0L668 183.4Z" fill="#8a87dd" stroke="#8a87dd"></path><path d="M517 600L544 522.6L433 600Z" fill="#7d7ada" stroke="#7d7ada"></path><path d="M431 449.6L544 522.6L481 400.9Z" fill="#afaee3" stroke="#afaee3"></path><path d="M399 0L364 0L433 24.7Z" fill="#716dd7" stroke="#716dd7"></path><path d="M235 75.4L208 224.1L354 231.4Z" fill="#c9c9e6" stroke="#c9c9e6"></path><path d="M303 290.9L225 363.6L302 341.9Z" fill="#bcbce5" stroke="#bcbce5"></path><path d="M544 522.6L676 466.3L533 361.6Z" fill="#5553d1" stroke="#5553d1"></path><path d="M208 224.1L225 363.6L303 290.9Z" fill="#7d7ada" stroke="#7d7ada"></path><path d="M302 341.9L240 423.3L385 428.3Z" fill="#afaee3" stroke="#afaee3"></path><path d="M433 600L544 522.6L431 449.6Z" fill="#7d7ada" stroke="#7d7ada"></path><path d="M712 406.6L783 309.1L683 329.1Z" fill="#a3a1e1" stroke="#a3a1e1"></path><path d="M768 430.9L783 309.1L712 406.6Z" fill="#716dd7" stroke="#716dd7"></path><path d="M727 0L652 0L686 180.7Z" fill="#5553d1" stroke="#5553d1"></path><path d="M789 213.1L715 269.9L763 265.4Z" fill="#6360d4" stroke="#6360d4"></path><path d="M225 363.6L240 423.3L302 341.9Z" fill="#5553d1" stroke="#5553d1"></path><path d="M635 571.3L691 475.3L676 466.3Z" fill="#7d7ada" stroke="#7d7ada"></path><path d="M676 466.3L691 475.3L712 406.6Z" fill="#7d7ada" stroke="#7d7ada"></path><path d="M783 309.1L789 213.1L763 265.4Z" fill="#4646cd" stroke="#4646cd"></path><path d="M364 0L235 75.4L354 231.4Z" fill="#716dd7" stroke="#716dd7"></path><path d="M190 124.4L185 185.1L208 224.1Z" fill="#8a87dd" stroke="#8a87dd"></path><path d="M208 224.1L185 369.6L225 363.6Z" fill="#afaee3" stroke="#afaee3"></path><path d="M185 369.6L227 436.3L240 423.3Z" fill="#8a87dd" stroke="#8a87dd"></path><path d="M240 423.3L296 600L385 428.3Z" fill="#afaee3" stroke="#afaee3"></path><path d="M185 369.6L240 423.3L225 363.6Z" fill="#bcbce5" stroke="#bcbce5"></path><path d="M235 75.4L190 124.4L208 224.1Z" fill="#4646cd" stroke="#4646cd"></path><path d="M121 255.4L185 369.6L208 224.1Z" fill="#c9c9e6" stroke="#c9c9e6"></path><path d="M900 296.9L812 179.4L789 213.1Z" fill="#9694df" stroke="#9694df"></path><path d="M789 213.1L812 179.4L686 180.7Z" fill="#a3a1e1" stroke="#a3a1e1"></path><path d="M691 475.3L768 430.9L712 406.6Z" fill="#bcbce5" stroke="#bcbce5"></path><path d="M900 172.1L878 121.7L812 179.4Z" fill="#a3a1e1" stroke="#a3a1e1"></path><path d="M179 0L196 67.7L235 75.4Z" fill="#7d7ada" stroke="#7d7ada"></path><path d="M235 75.4L196 67.7L190 124.4Z" fill="#6360d4" stroke="#6360d4"></path><path d="M812 179.4L727 0L686 180.7Z" fill="#9694df" stroke="#9694df"></path><path d="M433 600L431 449.6L413 600.3Z" fill="#c9c9e6" stroke="#c9c9e6"></path><path d="M544 522.6L635 571.3L676 466.3Z" fill="#c9c9e6" stroke="#c9c9e6"></path><path d="M691 475.3L783 506.6L768 430.9Z" fill="#a3a1e1" stroke="#a3a1e1"></path><path d="M554 600L635 571.3L544 522.6Z" fill="#a3a1e1" stroke="#a3a1e1"></path><path d="M413 600.3L431 449.6L385 428.3Z" fill="#6360d4" stroke="#6360d4"></path><path d="M517 600L554 600L544 522.6Z" fill="#9694df" stroke="#9694df"></path><path d="M433 600L413 600.3L517 600Z" fill="#9694df" stroke="#9694df"></path><path d="M517 600L413 600.3L554 600Z" fill="#716dd7" stroke="#716dd7"></path><path d="M296 600L413 600.3L385 428.3Z" fill="#716dd7" stroke="#716dd7"></path><path d="M185 185.1L121 255.4L208 224.1Z" fill="#afaee3" stroke="#afaee3"></path><path d="M53 143.7L121 255.4L185 185.1Z" fill="#5553d1" stroke="#5553d1"></path><path d="M53 143.7L185 185.1L190 124.4Z" fill="#716dd7" stroke="#716dd7"></path><path d="M554 600L646 600L635 571.3Z" fill="#6360d4" stroke="#6360d4"></path><path d="M724 600L783 506.6L691 475.3Z" fill="#bcbce5" stroke="#bcbce5"></path><path d="M900 601.3L646 600L554 600Z" fill="#5553d1" stroke="#5553d1"></path><path d="M42 304.1L103 298.9L121 255.4Z" fill="#c9c9e6" stroke="#c9c9e6"></path><path d="M121 255.4L103 298.9L185 369.6Z" fill="#9694df" stroke="#9694df"></path><path d="M185 369.6L100 439.3L227 436.3Z" fill="#6360d4" stroke="#6360d4"></path><path d="M724 600L691 475.3L635 571.3Z" fill="#7d7ada" stroke="#7d7ada"></path><path d="M900 331.6L900 296.9L783 309.1Z" fill="#8a87dd" stroke="#8a87dd"></path><path d="M270 600L296 600L227 436.3Z" fill="#7d7ada" stroke="#7d7ada"></path><path d="M227 436.3L296 600L240 423.3Z" fill="#6360d4" stroke="#6360d4"></path><path d="M180 -7.3L179 0L235 75.4Z" fill="#7d7ada" stroke="#7d7ada"></path><path d="M196 67.7L53 143.7L190 124.4Z" fill="#bcbce5" stroke="#bcbce5"></path><path d="M399 0L180 -7.3L364 0Z" fill="#716dd7" stroke="#716dd7"></path><path d="M364 0L180 -7.3L235 75.4Z" fill="#8a87dd" stroke="#8a87dd"></path><path d="M87 0L53 143.7L196 67.7Z" fill="#6360d4" stroke="#6360d4"></path><path d="M494 0L180 -7.3L399 0Z" fill="#716dd7" stroke="#716dd7"></path><path d="M811 -7.3L180 -7.3L494 0Z" fill="#7d7ada" stroke="#7d7ada"></path><path d="M811 -7.3L494 0L579 0Z" fill="#5553d1" stroke="#5553d1"></path><path d="M811 -7.3L579 0L652 0Z" fill="#8a87dd" stroke="#8a87dd"></path><path d="M100 439.3L270 600L227 436.3Z" fill="#a3a1e1" stroke="#a3a1e1"></path><path d="M296 600L270 600L413 600.3Z" fill="#4646cd" stroke="#4646cd"></path><path d="M900 296.9L789 213.1L783 309.1Z" fill="#4646cd" stroke="#4646cd"></path><path d="M812 179.4L811 -7.3L727 0Z" fill="#6360d4" stroke="#6360d4"></path><path d="M878 121.7L811 -7.3L812 179.4Z" fill="#6360d4" stroke="#6360d4"></path><path d="M727 0L811 -7.3L652 0Z" fill="#716dd7" stroke="#716dd7"></path><path d="M900 331.6L783 309.1L768 430.9Z" fill="#a3a1e1" stroke="#a3a1e1"></path><path d="M783 506.6L900 331.6L768 430.9Z" fill="#716dd7" stroke="#716dd7"></path><path d="M900 296.9L900 172.1L812 179.4Z" fill="#9694df" stroke="#9694df"></path><path d="M646 600L724 600L635 571.3Z" fill="#6360d4" stroke="#6360d4"></path><path d="M783 506.6L900 600L900 331.6Z" fill="#6360d4" stroke="#6360d4"></path><path d="M900 601.3L724 600L646 600Z" fill="#bcbce5" stroke="#bcbce5"></path><path d="M724 600L736 599.3L783 506.6Z" fill="#8a87dd" stroke="#8a87dd"></path><path d="M900 172.1L900 131.4L878 121.7Z" fill="#4646cd" stroke="#4646cd"></path><path d="M878 121.7L900 0L811 -7.3Z" fill="#9694df" stroke="#9694df"></path><path d="M900 131.4L900 128.7L878 121.7Z" fill="#bcbce5" stroke="#bcbce5"></path><path d="M103 298.9L100 439.3L185 369.6Z" fill="#bcbce5" stroke="#bcbce5"></path><path d="M900 601.3L760 600L724 600Z" fill="#6360d4" stroke="#6360d4"></path><path d="M724 600L760 600L736 599.3Z" fill="#9694df" stroke="#9694df"></path><path d="M736 599.3L760 600L783 506.6Z" fill="#5553d1" stroke="#5553d1"></path><path d="M87 0L196 67.7L179 0Z" fill="#7d7ada" stroke="#7d7ada"></path><path d="M103 298.9L45 391.9L100 439.3Z" fill="#8a87dd" stroke="#8a87dd"></path><path d="M0 240.4L42 304.1L121 255.4Z" fill="#4646cd" stroke="#4646cd"></path><path d="M42 304.1L45 391.9L103 298.9Z" fill="#4646cd" stroke="#4646cd"></path><path d="M100 439.3L58 600L270 600Z" fill="#4646cd" stroke="#4646cd"></path><path d="M180 -7.3L87 0L179 0Z" fill="#6360d4" stroke="#6360d4"></path><path d="M900 128.7L900 0L878 121.7Z" fill="#9694df" stroke="#9694df"></path><path d="M0 6.7L0 240.4L53 143.7Z" fill="#7d7ada" stroke="#7d7ada"></path><path d="M53 143.7L0 240.4L121 255.4Z" fill="#9694df" stroke="#9694df"></path><path d="M42 304.1L0 339.1L45 391.9Z" fill="#6360d4" stroke="#6360d4"></path><path d="M0 240.4L0 320.9L42 304.1Z" fill="#716dd7" stroke="#716dd7"></path><path d="M0 320.9L0 339.1L42 304.1Z" fill="#7d7ada" stroke="#7d7ada"></path><path d="M0 339.1L2 410.6L45 391.9Z" fill="#7d7ada" stroke="#7d7ada"></path><path d="M45 391.9L0 446.6L100 439.3Z" fill="#4646cd" stroke="#4646cd"></path><path d="M0 339.1L0 446.6L2 410.6Z" fill="#716dd7" stroke="#716dd7"></path><path d="M2 410.6L0 446.6L45 391.9Z" fill="#7d7ada" stroke="#7d7ada"></path><path d="M900 601.3L900 600L760 600Z" fill="#bcbce5" stroke="#bcbce5"></path><path d="M760 600L900 600L783 506.6Z" fill="#5553d1" stroke="#5553d1"></path><path d="M413 600.3L900 601.3L554 600Z" fill="#6360d4" stroke="#6360d4"></path><path d="M0 600L900 601.3L413 600.3Z" fill="#4646cd" stroke="#4646cd"></path><path d="M87 0L0 6.7L53 143.7Z" fill="#4646cd" stroke="#4646cd"></path><path d="M3 0L0 6.7L87 0Z" fill="#5553d1" stroke="#5553d1"></path><path d="M180 -7.3L3 0L87 0Z" fill="#a3a1e1" stroke="#a3a1e1"></path><path d="M180 -7.3L0 0L3 0Z" fill="#7d7ada" stroke="#7d7ada"></path><path d="M3 0L0 0L0 6.7Z" fill="#8a87dd" stroke="#8a87dd"></path><path d="M0 543.3L58 600L100 439.3Z" fill="#afaee3" stroke="#afaee3"></path><path d="M270 600L58 600L413 600.3Z" fill="#c9c9e6" stroke="#c9c9e6"></path><path d="M0 446.6L0 543.3L100 439.3Z" fill="#9694df" stroke="#9694df"></path><path d="M0 543.3L0 600L58 600Z" fill="#7d7ada" stroke="#7d7ada"></path><path d="M58 600L0 600L413 600.3Z" fill="#a3a1e1" stroke="#a3a1e1"></path></g></svg>