<svg id="visual" viewBox="0 0 900 600" width="900" height="600" xmlns="http://www.w3.org/2000/svg" xmlns:xlink="http://www.w3.org/1999/xlink" version="1.1"><rect width="900" height="600" fill="#4646cd"></rect><g><g transform="translate(582 207)"><path d="M0 -85.9L74.4 -42.9L74.4 42.9L0 85.9L-74.4 42.9L-74.4 -42.9Z" fill="none" stroke="#e5c743" stroke-width="4"></path></g><g transform="translate(153 316)"><path d="M0 -23L19.9 -11.5L19.9 11.5L0 23L-19.9 11.5L-19.9 -11.5Z" fill="none" stroke="#e5c743" stroke-width="4"></path></g><g transform="translate(815 100)"><path d="M0 -79L68.4 -39.5L68.4 39.5L0 79L-68.4 39.5L-68.4 -39.5Z" fill="none" stroke="#e5c743" stroke-width="4"></path></g><g transform="translate(432 427)"><path d="M0 -68L58.9 -34L58.9 34L0 68L-58.9 34L-58.9 -34Z" fill="none" stroke="#e5c743" stroke-width="4"></path></g><g transform="translate(241 118)"><path d="M0 -39L33.8 -19.5L33.8 19.5L0 39L-33.8 19.5L-33.8 -19.5Z" fill="none" stroke="#e5c743" stroke-width="4"></path></g><g transform="translate(772 336)"><path d="M0 -37L32 -18.5L32 18.5L0 37L-32 18.5L-32 -18.5Z" fill="none" stroke="#e5c743" stroke-width="4"></path></g><g transform="translate(149 532)"><path d="M0 -75L65 -37.5L65 37.5L0 75L-65 37.5L-65 -37.5Z" fill="none" stroke="#e5c743" stroke-width="4"></path></g><g transform="translate(650 5)"><path d="M0 -35L30.3 -17.5L30.3 17.5L0 35L-30.3 17.5L-30.3 -17.5Z" fill="none" stroke="#e5c743" stroke-width="4"></path></g><g transform="translate(846 551)"><path d="M0 -10L8.7 -5L8.7 5L0 10L-8.7 5L-8.7 -5Z" fill="none" stroke="#e5c743" stroke-width="4"></path></g><g transform="translate(61 15)"><path d="M0 -77L66.7 -38.5L66.7 38.5L0 77L-66.7 38.5L-66.7 -38.5Z" fill="none" stroke="#e5c743" stroke-width="4"></path></g><g transform="translate(675 508)"><path d="M0 -55L47.6 -27.5L47.6 27.5L0 55L-47.6 27.5L-47.6 -27.5Z" fill="none" stroke="#e5c743" stroke-width="4"></path></g><g transform="translate(1 404)"><path d="M0 -30L26 -15L26 15L0 30L-26 15L-26 -15Z" fill="none" stroke="#e5c743" stroke-width="4"></path></g><g transform="translate(12 213)"><path d="M0 -29L25.1 -14.5L25.1 14.5L0 29L-25.1 14.5L-25.1 -14.5Z" fill="none" stroke="#e5c743" stroke-width="4"></path></g><g transform="translate(437 72)"><path d="M0 -47L40.7 -23.5L40.7 23.5L0 47L-40.7 23.5L-40.7 -23.5Z" stroke="#e5c743" fill="none" stroke-width="4"></path></g><g transform="translate(332 588)"><path d="M0 -80L69.3 -40L69.3 40L0 80L-69.3 40L-69.3 -40Z" stroke="#e5c743" fill="none" stroke-width="4"></path></g><g transform="translate(366 249)"><path d="M0 -25L21.7 -12.5L21.7 12.5L0 25L-21.7 12.5L-21.7 -12.5Z" stroke="#e5c743" fill="none" stroke-width="4"></path></g><g transform="translate(516 589)"><path d="M0 -26L22.5 -13L22.5 13L0 26L-22.5 13L-22.5 -13Z" stroke="#e5c743" fill="none" stroke-width="4"></path></g></g></svg>