<svg id="visual" viewBox="0 0 900 600" width="900" height="600" xmlns="http://www.w3.org/2000/svg" xmlns:xlink="http://www.w3.org/1999/xlink" version="1.1"><path d="M0 49L75 43C150 37 300 25 450 16.8C600 8.7 750 4.3 825 2.2L900 0L900 0L825 0C750 0 600 0 450 0C300 0 150 0 75 0L0 0Z" fill="#313397"></path><path d="M0 109L75 93C150 77 300 45 450 26.8C600 8.7 750 4.3 825 2.2L900 0L900 0L825 1.8C750 3.7 600 7.3 450 15.2C300 23 150 35 75 41L0 47Z" fill="#3536a1"></path><path d="M0 133L75 134C150 135 300 137 450 131C600 125 750 111 825 104L900 97L900 0L825 1.8C750 3.7 600 7.3 450 25.2C300 43 150 75 75 91L0 107Z" fill="#383aaa"></path><path d="M0 139L75 139C150 139 300 139 450 140C600 141 750 143 825 144L900 145L900 95L825 102C750 109 600 123 450 129C300 135 150 133 75 132L0 131Z" fill="#3c3db4"></path><path d="M0 307L75 316C150 325 300 343 450 335C600 327 750 293 825 276L900 259L900 143L825 142C750 141 600 139 450 138C300 137 150 137 75 137L0 137Z" fill="#4041be"></path><path d="M0 337L75 345C150 353 300 369 450 363C600 357 750 329 825 315L900 301L900 257L825 274C750 291 600 325 450 333C300 341 150 323 75 314L0 305Z" fill="#4444c8"></path><path d="M0 373L75 388C150 403 300 433 450 421C600 409 750 355 825 328L900 301L900 299L825 313C750 327 600 355 450 361C300 367 150 351 75 343L0 335Z" fill="#4c4bcf"></path><path d="M0 379L75 396C150 413 300 447 450 437C600 427 750 373 825 346L900 319L900 299L825 326C750 353 600 407 450 419C300 431 150 401 75 386L0 371Z" fill="#5855d3"></path><path d="M0 385L75 401C150 417 300 449 450 452C600 455 750 429 825 416L900 403L900 317L825 344C750 371 600 425 450 435C300 445 150 411 75 394L0 377Z" fill="#635fd6"></path><path d="M0 415L75 436C150 457 300 499 450 500C600 501 750 461 825 441L900 421L900 401L825 414C750 427 600 453 450 450C300 447 150 415 75 399L0 383Z" fill="#6e6ada"></path><path d="M0 577L75 573C150 569 300 561 450 559C600 557 750 561 825 563L900 565L900 419L825 439C750 459 600 499 450 498C300 497 150 455 75 434L0 413Z" fill="#7874dd"></path><path d="M0 601L75 601C150 601 300 601 450 601C600 601 750 601 825 601L900 601L900 563L825 561C750 559 600 555 450 557C300 559 150 567 75 571L0 575Z" fill="#827ee0"></path></svg>