<svg id="visual" viewBox="0 0 900 600" width="900" height="600" xmlns="http://www.w3.org/2000/svg" xmlns:xlink="http://www.w3.org/1999/xlink" version="1.1"><path d="M0 438L10.7 436.8C21.3 435.7 42.7 433.3 64.2 433.5C85.7 433.7 107.3 436.3 128.8 437.3C150.3 438.3 171.7 437.7 193 434.8C214.3 432 235.7 427 257 426C278.3 425 299.7 428 321.2 430C342.7 432 364.3 433 385.8 433.8C407.3 434.7 428.7 435.3 450 436.2C471.3 437 492.7 438 514.2 437.7C535.7 437.3 557.3 435.7 578.8 434.5C600.3 433.3 621.7 432.7 643 431.7C664.3 430.7 685.7 429.3 707 428.7C728.3 428 749.7 428 771.2 427.3C792.7 426.7 814.3 425.3 835.8 425.2C857.3 425 878.7 426 889.3 426.5L900 427L900 0L889.3 0C878.7 0 857.3 0 835.8 0C814.3 0 792.7 0 771.2 0C749.7 0 728.3 0 707 0C685.7 0 664.3 0 643 0C621.7 0 600.3 0 578.8 0C557.3 0 535.7 0 514.2 0C492.7 0 471.3 0 450 0C428.7 0 407.3 0 385.8 0C364.3 0 342.7 0 321.2 0C299.7 0 278.3 0 257 0C235.7 0 214.3 0 193 0C171.7 0 150.3 0 128.8 0C107.3 0 85.7 0 64.2 0C42.7 0 21.3 0 10.7 0L0 0Z" fill="#827ee0"></path><path d="M0 385L10.7 384.5C21.3 384 42.7 383 64.2 382.5C85.7 382 107.3 382 128.8 382C150.3 382 171.7 382 193 382.8C214.3 383.7 235.7 385.3 257 384.5C278.3 383.7 299.7 380.3 321.2 378.5C342.7 376.7 364.3 376.3 385.8 375.7C407.3 375 428.7 374 450 376.7C471.3 379.3 492.7 385.7 514.2 387.3C535.7 389 557.3 386 578.8 385.2C600.3 384.3 621.7 385.7 643 386.3C664.3 387 685.7 387 707 386C728.3 385 749.7 383 771.2 380.8C792.7 378.7 814.3 376.3 835.8 377.5C857.3 378.7 878.7 383.3 889.3 385.7L900 388L900 0L889.3 0C878.7 0 857.3 0 835.8 0C814.3 0 792.7 0 771.2 0C749.7 0 728.3 0 707 0C685.7 0 664.3 0 643 0C621.7 0 600.3 0 578.8 0C557.3 0 535.7 0 514.2 0C492.7 0 471.3 0 450 0C428.7 0 407.3 0 385.8 0C364.3 0 342.7 0 321.2 0C299.7 0 278.3 0 257 0C235.7 0 214.3 0 193 0C171.7 0 150.3 0 128.8 0C107.3 0 85.7 0 64.2 0C42.7 0 21.3 0 10.7 0L0 0Z" fill="#7470dc"></path><path d="M0 331L10.7 332.5C21.3 334 42.7 337 64.2 338.7C85.7 340.3 107.3 340.7 128.8 339.2C150.3 337.7 171.7 334.3 193 332.2C214.3 330 235.7 329 257 328.2C278.3 327.3 299.7 326.7 321.2 327.7C342.7 328.7 364.3 331.3 385.8 332.3C407.3 333.3 428.7 332.7 450 333.8C471.3 335 492.7 338 514.2 337C535.7 336 557.3 331 578.8 329.3C600.3 327.7 621.7 329.3 643 329.3C664.3 329.3 685.7 327.7 707 329.2C728.3 330.7 749.7 335.3 771.2 336C792.7 336.7 814.3 333.3 835.8 333C857.3 332.7 878.7 335.3 889.3 336.7L900 338L900 0L889.3 0C878.7 0 857.3 0 835.8 0C814.3 0 792.7 0 771.2 0C749.7 0 728.3 0 707 0C685.7 0 664.3 0 643 0C621.7 0 600.3 0 578.8 0C557.3 0 535.7 0 514.2 0C492.7 0 471.3 0 450 0C428.7 0 407.3 0 385.8 0C364.3 0 342.7 0 321.2 0C299.7 0 278.3 0 257 0C235.7 0 214.3 0 193 0C171.7 0 150.3 0 128.8 0C107.3 0 85.7 0 64.2 0C42.7 0 21.3 0 10.7 0L0 0Z" fill="#6662d7"></path><path d="M0 284L10.7 285.2C21.3 286.3 42.7 288.7 64.2 288.3C85.7 288 107.3 285 128.8 282.8C150.3 280.7 171.7 279.3 193 279.8C214.3 280.3 235.7 282.7 257 282.7C278.3 282.7 299.7 280.3 321.2 280.7C342.7 281 364.3 284 385.8 285.5C407.3 287 428.7 287 450 288.2C471.3 289.3 492.7 291.7 514.2 290.2C535.7 288.7 557.3 283.3 578.8 281.7C600.3 280 621.7 282 643 285C664.3 288 685.7 292 707 292.3C728.3 292.7 749.7 289.3 771.2 289.3C792.7 289.3 814.3 292.7 835.8 293.7C857.3 294.7 878.7 293.3 889.3 292.7L900 292L900 0L889.3 0C878.7 0 857.3 0 835.8 0C814.3 0 792.7 0 771.2 0C749.7 0 728.3 0 707 0C685.7 0 664.3 0 643 0C621.7 0 600.3 0 578.8 0C557.3 0 535.7 0 514.2 0C492.7 0 471.3 0 450 0C428.7 0 407.3 0 385.8 0C364.3 0 342.7 0 321.2 0C299.7 0 278.3 0 257 0C235.7 0 214.3 0 193 0C171.7 0 150.3 0 128.8 0C107.3 0 85.7 0 64.2 0C42.7 0 21.3 0 10.7 0L0 0Z" fill="#5754d2"></path><path d="M0 232L10.7 233.5C21.3 235 42.7 238 64.2 238.2C85.7 238.3 107.3 235.7 128.8 235.3C150.3 235 171.7 237 193 238.5C214.3 240 235.7 241 257 242.5C278.3 244 299.7 246 321.2 244.2C342.7 242.3 364.3 236.7 385.8 233.5C407.3 230.3 428.7 229.7 450 230C471.3 230.3 492.7 231.7 514.2 233.5C535.7 235.3 557.3 237.7 578.8 238.3C600.3 239 621.7 238 643 239.3C664.3 240.7 685.7 244.3 707 244.8C728.3 245.3 749.7 242.7 771.2 242.7C792.7 242.7 814.3 245.3 835.8 245.7C857.3 246 878.7 244 889.3 243L900 242L900 0L889.3 0C878.7 0 857.3 0 835.8 0C814.3 0 792.7 0 771.2 0C749.7 0 728.3 0 707 0C685.7 0 664.3 0 643 0C621.7 0 600.3 0 578.8 0C557.3 0 535.7 0 514.2 0C492.7 0 471.3 0 450 0C428.7 0 407.3 0 385.8 0C364.3 0 342.7 0 321.2 0C299.7 0 278.3 0 257 0C235.7 0 214.3 0 193 0C171.7 0 150.3 0 128.8 0C107.3 0 85.7 0 64.2 0C42.7 0 21.3 0 10.7 0L0 0Z" fill="#4646cd"></path><path d="M0 190L10.7 191.5C21.3 193 42.7 196 64.2 196C85.7 196 107.3 193 128.8 192.3C150.3 191.7 171.7 193.3 193 195C214.3 196.7 235.7 198.3 257 196.3C278.3 194.3 299.7 188.7 321.2 187.8C342.7 187 364.3 191 385.8 192.5C407.3 194 428.7 193 450 191.3C471.3 189.7 492.7 187.3 514.2 187.7C535.7 188 557.3 191 578.8 191.2C600.3 191.3 621.7 188.7 643 186.7C664.3 184.7 685.7 183.3 707 185.7C728.3 188 749.7 194 771.2 196.2C792.7 198.3 814.3 196.7 835.8 194.7C857.3 192.7 878.7 190.3 889.3 189.2L900 188L900 0L889.3 0C878.7 0 857.3 0 835.8 0C814.3 0 792.7 0 771.2 0C749.7 0 728.3 0 707 0C685.7 0 664.3 0 643 0C621.7 0 600.3 0 578.8 0C557.3 0 535.7 0 514.2 0C492.7 0 471.3 0 450 0C428.7 0 407.3 0 385.8 0C364.3 0 342.7 0 321.2 0C299.7 0 278.3 0 257 0C235.7 0 214.3 0 193 0C171.7 0 150.3 0 128.8 0C107.3 0 85.7 0 64.2 0C42.7 0 21.3 0 10.7 0L0 0Z" fill="#4041bf"></path><path d="M0 134L10.7 136.3C21.3 138.7 42.7 143.3 64.2 146.3C85.7 149.3 107.3 150.7 128.8 149.5C150.3 148.3 171.7 144.7 193 144C214.3 143.3 235.7 145.7 257 147.5C278.3 149.3 299.7 150.7 321.2 149.2C342.7 147.7 364.3 143.3 385.8 142.7C407.3 142 428.7 145 450 144.5C471.3 144 492.7 140 514.2 139.8C535.7 139.7 557.3 143.3 578.8 146C600.3 148.7 621.7 150.3 643 148.5C664.3 146.7 685.7 141.3 707 139C728.3 136.7 749.7 137.3 771.2 137.3C792.7 137.3 814.3 136.7 835.8 135.8C857.3 135 878.7 134 889.3 133.5L900 133L900 0L889.3 0C878.7 0 857.3 0 835.8 0C814.3 0 792.7 0 771.2 0C749.7 0 728.3 0 707 0C685.7 0 664.3 0 643 0C621.7 0 600.3 0 578.8 0C557.3 0 535.7 0 514.2 0C492.7 0 471.3 0 450 0C428.7 0 407.3 0 385.8 0C364.3 0 342.7 0 321.2 0C299.7 0 278.3 0 257 0C235.7 0 214.3 0 193 0C171.7 0 150.3 0 128.8 0C107.3 0 85.7 0 64.2 0C42.7 0 21.3 0 10.7 0L0 0Z" fill="#3b3cb2"></path><path d="M0 102L10.7 101.7C21.3 101.3 42.7 100.7 64.2 99.7C85.7 98.7 107.3 97.3 128.8 98C150.3 98.7 171.7 101.3 193 100.7C214.3 100 235.7 96 257 93.8C278.3 91.7 299.7 91.3 321.2 90.5C342.7 89.7 364.3 88.3 385.8 87.5C407.3 86.7 428.7 86.3 450 87.2C471.3 88 492.7 90 514.2 92.7C535.7 95.3 557.3 98.7 578.8 98.2C600.3 97.7 621.7 93.3 643 93.7C664.3 94 685.7 99 707 98.5C728.3 98 749.7 92 771.2 90C792.7 88 814.3 90 835.8 91.7C857.3 93.3 878.7 94.7 889.3 95.3L900 96L900 0L889.3 0C878.7 0 857.3 0 835.8 0C814.3 0 792.7 0 771.2 0C749.7 0 728.3 0 707 0C685.7 0 664.3 0 643 0C621.7 0 600.3 0 578.8 0C557.3 0 535.7 0 514.2 0C492.7 0 471.3 0 450 0C428.7 0 407.3 0 385.8 0C364.3 0 342.7 0 321.2 0C299.7 0 278.3 0 257 0C235.7 0 214.3 0 193 0C171.7 0 150.3 0 128.8 0C107.3 0 85.7 0 64.2 0C42.7 0 21.3 0 10.7 0L0 0Z" fill="#3638a4"></path><path d="M0 47L10.7 45.5C21.3 44 42.7 41 64.2 42.2C85.7 43.3 107.3 48.7 128.8 49.7C150.3 50.7 171.7 47.3 193 46.3C214.3 45.3 235.7 46.7 257 45.7C278.3 44.7 299.7 41.3 321.2 40.3C342.7 39.3 364.3 40.7 385.8 41C407.3 41.3 428.7 40.7 450 42.5C471.3 44.3 492.7 48.7 514.2 51C535.7 53.3 557.3 53.7 578.8 51.8C600.3 50 621.7 46 643 43.5C664.3 41 685.7 40 707 40C728.3 40 749.7 41 771.2 43.8C792.7 46.7 814.3 51.3 835.8 53C857.3 54.7 878.7 53.3 889.3 52.7L900 52L900 0L889.3 0C878.7 0 857.3 0 835.8 0C814.3 0 792.7 0 771.2 0C749.7 0 728.3 0 707 0C685.7 0 664.3 0 643 0C621.7 0 600.3 0 578.8 0C557.3 0 535.7 0 514.2 0C492.7 0 471.3 0 450 0C428.7 0 407.3 0 385.8 0C364.3 0 342.7 0 321.2 0C299.7 0 278.3 0 257 0C235.7 0 214.3 0 193 0C171.7 0 150.3 0 128.8 0C107.3 0 85.7 0 64.2 0C42.7 0 21.3 0 10.7 0L0 0Z" fill="#313397"></path></svg>