<svg id="visual" viewBox="0 0 900 600" width="900" height="600" xmlns="http://www.w3.org/2000/svg" xmlns:xlink="http://www.w3.org/1999/xlink" version="1.1"><g stroke-width="1" stroke-linejoin="bevel"><path d="M513.3 256L556.3 342L604.9 252Z" fill="#393bac" stroke="#393bac"></path><path d="M556.3 342L607.9 323L604.9 252Z" fill="#3d3eb7" stroke="#3d3eb7"></path><path d="M738.4 117L606.9 114L604.9 252Z" fill="#827ee0" stroke="#827ee0"></path><path d="M604.9 252L606.9 114L513.3 256Z" fill="#6c68d9" stroke="#6c68d9"></path><path d="M606.9 114L467.3 122L513.3 256Z" fill="#7773dd" stroke="#7773dd"></path><path d="M667.9 511L755.4 327L607.9 323Z" fill="#393bac" stroke="#393bac"></path><path d="M607.9 323L755.4 327L604.9 252Z" fill="#827ee0" stroke="#827ee0"></path><path d="M755.4 327L758.4 225L604.9 252Z" fill="#5351d1" stroke="#5351d1"></path><path d="M341.7 266L385.7 406L513.3 256Z" fill="#4646cd" stroke="#4646cd"></path><path d="M513.3 256L385.7 406L556.3 342Z" fill="#393bac" stroke="#393bac"></path><path d="M556.3 342L667.9 511L607.9 323Z" fill="#3537a2" stroke="#3537a2"></path><path d="M467.3 122L341.7 266L513.3 256Z" fill="#4646cd" stroke="#4646cd"></path><path d="M415.7 476L534.3 517L556.3 342Z" fill="#4646cd" stroke="#4646cd"></path><path d="M385.7 406L415.7 476L556.3 342Z" fill="#605cd5" stroke="#605cd5"></path><path d="M758.4 225L738.4 117L604.9 252Z" fill="#7773dd" stroke="#7773dd"></path><path d="M534.3 517L667.9 511L556.3 342Z" fill="#7773dd" stroke="#7773dd"></path><path d="M467.3 122L372.7 109L341.7 266Z" fill="#827ee0" stroke="#827ee0"></path><path d="M360.7 0L372.7 109L467.3 122Z" fill="#4646cd" stroke="#4646cd"></path><path d="M341.7 266L292.1 360L385.7 406Z" fill="#827ee0" stroke="#827ee0"></path><path d="M385.7 406L212.1 445L415.7 476Z" fill="#313397" stroke="#313397"></path><path d="M225.1 205L292.1 360L341.7 266Z" fill="#6c68d9" stroke="#6c68d9"></path><path d="M659.9 0L538.3 0L606.9 114Z" fill="#3d3eb7" stroke="#3d3eb7"></path><path d="M606.9 114L538.3 0L467.3 122Z" fill="#6c68d9" stroke="#6c68d9"></path><path d="M738.4 117L659.9 0L606.9 114Z" fill="#3537a2" stroke="#3537a2"></path><path d="M364.7 600L543.3 600L534.3 517Z" fill="#313397" stroke="#313397"></path><path d="M534.3 517L626.9 600L667.9 511Z" fill="#7773dd" stroke="#7773dd"></path><path d="M364.7 600L534.3 517L415.7 476Z" fill="#3537a2" stroke="#3537a2"></path><path d="M543.3 600L626.9 600L534.3 517Z" fill="#6c68d9" stroke="#6c68d9"></path><path d="M667.9 511L801.4 516L755.4 327Z" fill="#313397" stroke="#313397"></path><path d="M360.7 0L279.1 120L372.7 109Z" fill="#6c68d9" stroke="#6c68d9"></path><path d="M372.7 109L279.1 120L341.7 266Z" fill="#3537a2" stroke="#3537a2"></path><path d="M746.4 600L801.4 516L667.9 511Z" fill="#7773dd" stroke="#7773dd"></path><path d="M755.4 327L900 268L758.4 225Z" fill="#4242c2" stroke="#4242c2"></path><path d="M900 390L900 268L755.4 327Z" fill="#827ee0" stroke="#827ee0"></path><path d="M758.4 225L900 74L738.4 117Z" fill="#827ee0" stroke="#827ee0"></path><path d="M738.4 117L745.4 0L659.9 0Z" fill="#6c68d9" stroke="#6c68d9"></path><path d="M900 74L745.4 0L738.4 117Z" fill="#393bac" stroke="#393bac"></path><path d="M279.1 120L225.1 205L341.7 266Z" fill="#393bac" stroke="#393bac"></path><path d="M538.3 0L360.7 0L467.3 122Z" fill="#7773dd" stroke="#7773dd"></path><path d="M801.4 516L900 390L755.4 327Z" fill="#4242c2" stroke="#4242c2"></path><path d="M626.9 600L746.4 600L667.9 511Z" fill="#313397" stroke="#313397"></path><path d="M801.4 516L900 472L900 390Z" fill="#7773dd" stroke="#7773dd"></path><path d="M212.1 445L364.7 600L415.7 476Z" fill="#3d3eb7" stroke="#3d3eb7"></path><path d="M212.1 445L385.7 406L292.1 360Z" fill="#7773dd" stroke="#7773dd"></path><path d="M101.6 390L212.1 445L292.1 360Z" fill="#3537a2" stroke="#3537a2"></path><path d="M900 600L900 472L801.4 516Z" fill="#3537a2" stroke="#3537a2"></path><path d="M900 268L900 74L758.4 225Z" fill="#6c68d9" stroke="#6c68d9"></path><path d="M102.6 114L163.6 232L225.1 205Z" fill="#4646cd" stroke="#4646cd"></path><path d="M225.1 205L163.6 232L292.1 360Z" fill="#4646cd" stroke="#4646cd"></path><path d="M102.6 114L225.1 205L279.1 120Z" fill="#6c68d9" stroke="#6c68d9"></path><path d="M360.7 0L255.1 0L279.1 120Z" fill="#6c68d9" stroke="#6c68d9"></path><path d="M900 74L900 0L745.4 0Z" fill="#5351d1" stroke="#5351d1"></path><path d="M151.6 500L243.1 600L212.1 445Z" fill="#6c68d9" stroke="#6c68d9"></path><path d="M212.1 445L243.1 600L364.7 600Z" fill="#3537a2" stroke="#3537a2"></path><path d="M101.6 390L151.6 500L212.1 445Z" fill="#313397" stroke="#313397"></path><path d="M746.4 600L900 600L801.4 516Z" fill="#3d3eb7" stroke="#3d3eb7"></path><path d="M163.6 232L101.6 390L292.1 360Z" fill="#3537a2" stroke="#3537a2"></path><path d="M255.1 0L102.6 114L279.1 120Z" fill="#4646cd" stroke="#4646cd"></path><path d="M163.6 232L0 217L101.6 390Z" fill="#393bac" stroke="#393bac"></path><path d="M0 600L168.6 600L151.6 500Z" fill="#5351d1" stroke="#5351d1"></path><path d="M151.6 500L168.6 600L243.1 600Z" fill="#5351d1" stroke="#5351d1"></path><path d="M255.1 0L95.6 0L102.6 114Z" fill="#393bac" stroke="#393bac"></path><path d="M102.6 114L0 217L163.6 232Z" fill="#4242c2" stroke="#4242c2"></path><path d="M0 111L0 217L102.6 114Z" fill="#4646cd" stroke="#4646cd"></path><path d="M101.6 390L0 454L151.6 500Z" fill="#7773dd" stroke="#7773dd"></path><path d="M0 217L0 371L101.6 390Z" fill="#3d3eb7" stroke="#3d3eb7"></path><path d="M0 371L0 454L101.6 390Z" fill="#5351d1" stroke="#5351d1"></path><path d="M95.6 0L0 111L102.6 114Z" fill="#4646cd" stroke="#4646cd"></path><path d="M95.6 0L0 0L0 111Z" fill="#4646cd" stroke="#4646cd"></path><path d="M0 454L0 600L151.6 500Z" fill="#5351d1" stroke="#5351d1"></path></g></svg>