<svg id="visual" viewBox="0 0 900 600" width="900" height="600" xmlns="http://www.w3.org/2000/svg" xmlns:xlink="http://www.w3.org/1999/xlink" version="1.1"><path d="M778 0L771 0L771 30L857 30L857 60L707 60L707 90L659 90L659 120L677 120L677 150L733 150L733 180L751 180L751 210L764 210L764 240L750 240L750 270L857 270L857 300L692 300L692 330L642 330L642 360L824 360L824 390L765 390L765 420L775 420L775 450L823 450L823 480L855 480L855 510L722 510L722 540L817 540L817 570L765 570L765 600L0 600L0 570L0 570L0 540L0 540L0 510L0 510L0 480L0 480L0 450L0 450L0 420L0 420L0 390L0 390L0 360L0 360L0 330L0 330L0 300L0 300L0 270L0 270L0 240L0 240L0 210L0 210L0 180L0 180L0 150L0 150L0 120L0 120L0 90L0 90L0 60L0 60L0 30L0 30L0 0L0 0Z" fill="#9898ff"></path><path d="M642 0L801 0L801 30L721 30L721 60L784 60L784 90L771 90L771 120L752 120L752 150L658 150L658 180L711 180L711 210L648 210L648 240L762 240L762 270L680 270L680 300L692 300L692 330L756 330L756 360L653 360L653 390L695 390L695 420L666 420L666 450L642 450L642 480L612 480L612 510L699 510L699 540L639 540L639 570L646 570L646 600L0 600L0 570L0 570L0 540L0 540L0 510L0 510L0 480L0 480L0 450L0 450L0 420L0 420L0 390L0 390L0 360L0 360L0 330L0 330L0 300L0 300L0 270L0 270L0 240L0 240L0 210L0 210L0 180L0 180L0 150L0 150L0 120L0 120L0 90L0 90L0 60L0 60L0 30L0 30L0 0L0 0Z" fill="#9190fb"></path><path d="M577 0L602 0L602 30L573 30L573 60L665 60L665 90L617 90L617 120L545 120L545 150L599 150L599 180L611 180L611 210L670 210L670 240L551 240L551 270L615 270L615 300L533 300L533 330L734 330L734 360L584 360L584 390L660 390L660 420L716 420L716 450L535 450L535 480L617 480L617 510L647 510L647 540L541 540L541 570L541 570L541 600L0 600L0 570L0 570L0 540L0 540L0 510L0 510L0 480L0 480L0 450L0 450L0 420L0 420L0 390L0 390L0 360L0 360L0 330L0 330L0 300L0 300L0 270L0 270L0 240L0 240L0 210L0 210L0 180L0 180L0 150L0 150L0 120L0 120L0 90L0 90L0 60L0 60L0 30L0 30L0 0L0 0Z" fill="#8a89f6"></path><path d="M569 0L640 0L640 30L557 30L557 60L644 60L644 90L534 90L534 120L611 120L611 150L573 150L573 180L510 180L510 210L489 210L489 240L633 240L633 270L662 270L662 300L537 300L537 330L509 330L509 360L484 360L484 390L665 390L665 420L488 420L488 450L540 450L540 480L589 480L589 510L514 510L514 540L664 540L664 570L550 570L550 600L0 600L0 570L0 570L0 540L0 540L0 510L0 510L0 480L0 480L0 450L0 450L0 420L0 420L0 390L0 390L0 360L0 360L0 330L0 330L0 300L0 300L0 270L0 270L0 240L0 240L0 210L0 210L0 180L0 180L0 150L0 150L0 120L0 120L0 90L0 90L0 60L0 60L0 30L0 30L0 0L0 0Z" fill="#8282f2"></path><path d="M590 0L531 0L531 30L461 30L461 60L540 60L540 90L516 90L516 120L588 120L588 150L469 150L469 180L422 180L422 210L549 210L549 240L489 240L489 270L486 270L486 300L503 300L503 330L444 330L444 360L494 360L494 390L588 390L588 420L520 420L520 450L423 450L423 480L457 480L457 510L548 510L548 540L415 540L415 570L437 570L437 600L0 600L0 570L0 570L0 540L0 540L0 510L0 510L0 480L0 480L0 450L0 450L0 420L0 420L0 390L0 390L0 360L0 360L0 330L0 330L0 300L0 300L0 270L0 270L0 240L0 240L0 210L0 210L0 180L0 180L0 150L0 150L0 120L0 120L0 90L0 90L0 60L0 60L0 30L0 30L0 0L0 0Z" fill="#7b7aee"></path><path d="M366 0L381 0L381 30L496 30L496 60L517 60L517 90L526 90L526 120L517 120L517 150L526 150L526 180L490 180L490 210L479 210L479 240L367 240L367 270L531 270L531 300L459 300L459 330L379 330L379 360L369 360L369 390L525 390L525 420L366 420L366 450L530 450L530 480L384 480L384 510L427 510L427 540L440 540L440 570L502 570L502 600L0 600L0 570L0 570L0 540L0 540L0 510L0 510L0 480L0 480L0 450L0 450L0 420L0 420L0 390L0 390L0 360L0 360L0 330L0 330L0 300L0 300L0 270L0 270L0 240L0 240L0 210L0 210L0 180L0 180L0 150L0 150L0 120L0 120L0 90L0 90L0 60L0 60L0 30L0 30L0 0L0 0Z" fill="#7473e9"></path><path d="M366 0L312 0L312 30L346 30L346 60L329 60L329 90L417 90L417 120L382 120L382 150L429 150L429 180L399 180L399 210L402 210L402 240L407 240L407 270L337 270L337 300L347 300L347 330L425 330L425 360L355 360L355 390L454 390L454 420L401 420L401 450L314 450L314 480L320 480L320 510L449 510L449 540L402 540L402 570L462 570L462 600L0 600L0 570L0 570L0 540L0 540L0 510L0 510L0 480L0 480L0 450L0 450L0 420L0 420L0 390L0 390L0 360L0 360L0 330L0 330L0 300L0 300L0 270L0 270L0 240L0 240L0 210L0 210L0 180L0 180L0 150L0 150L0 120L0 120L0 90L0 90L0 60L0 60L0 30L0 30L0 0L0 0Z" fill="#6c6be5"></path><path d="M296 0L317 0L317 30L308 30L308 60L263 60L263 90L267 90L267 120L340 120L340 150L290 150L290 180L256 180L256 210L329 210L329 240L363 240L363 270L349 270L349 300L330 300L330 330L254 330L254 360L312 360L312 390L368 390L368 420L387 420L387 450L310 450L310 480L261 480L261 510L279 510L279 540L256 540L256 570L276 570L276 600L0 600L0 570L0 570L0 540L0 540L0 510L0 510L0 480L0 480L0 450L0 450L0 420L0 420L0 390L0 390L0 360L0 360L0 330L0 330L0 300L0 300L0 270L0 270L0 240L0 240L0 210L0 210L0 180L0 180L0 150L0 150L0 120L0 120L0 90L0 90L0 60L0 60L0 30L0 30L0 0L0 0Z" fill="#6564e0"></path><path d="M316 0L311 0L311 30L291 30L291 60L262 60L262 90L273 90L273 120L323 120L323 150L228 150L228 180L286 180L286 210L265 210L265 240L239 240L239 270L257 270L257 300L291 300L291 330L325 330L325 360L254 360L254 390L298 390L298 420L258 420L258 450L194 450L194 480L250 480L250 510L276 510L276 540L189 540L189 570L324 570L324 600L0 600L0 570L0 570L0 540L0 540L0 510L0 510L0 480L0 480L0 450L0 450L0 420L0 420L0 390L0 390L0 360L0 360L0 330L0 330L0 300L0 300L0 270L0 270L0 240L0 240L0 210L0 210L0 180L0 180L0 150L0 150L0 120L0 120L0 90L0 90L0 60L0 60L0 30L0 30L0 0L0 0Z" fill="#5e5cdb"></path><path d="M155 0L224 0L224 30L260 30L260 60L168 60L168 90L244 90L244 120L203 120L203 150L234 150L234 180L255 180L255 210L179 210L179 240L141 240L141 270L254 270L254 300L182 300L182 330L215 330L215 360L231 360L231 390L208 390L208 420L214 420L214 450L189 450L189 480L158 480L158 510L155 510L155 540L177 540L177 570L152 570L152 600L0 600L0 570L0 570L0 540L0 540L0 510L0 510L0 480L0 480L0 450L0 450L0 420L0 420L0 390L0 390L0 360L0 360L0 330L0 330L0 300L0 300L0 270L0 270L0 240L0 240L0 210L0 210L0 180L0 180L0 150L0 150L0 120L0 120L0 90L0 90L0 60L0 60L0 30L0 30L0 0L0 0Z" fill="#5655d7"></path><path d="M80 0L187 0L187 30L142 30L142 60L149 60L149 90L77 90L77 120L149 120L149 150L118 150L118 180L192 180L192 210L154 210L154 240L117 240L117 270L180 270L180 300L139 300L139 330L172 330L172 360L148 360L148 390L178 390L178 420L131 420L131 450L188 450L188 480L189 480L189 510L84 510L84 540L85 540L85 570L97 570L97 600L0 600L0 570L0 570L0 540L0 540L0 510L0 510L0 480L0 480L0 450L0 450L0 420L0 420L0 390L0 390L0 360L0 360L0 330L0 330L0 300L0 300L0 270L0 270L0 240L0 240L0 210L0 210L0 180L0 180L0 150L0 150L0 120L0 120L0 90L0 90L0 60L0 60L0 30L0 30L0 0L0 0Z" fill="#4e4dd2"></path><path d="M103 0L18 0L18 30L20 30L20 60L60 60L60 90L81 90L81 120L82 120L82 150L105 150L105 180L51 180L51 210L103 210L103 240L88 240L88 270L19 270L19 300L124 300L124 330L63 330L63 360L46 360L46 390L118 390L118 420L92 420L92 450L94 450L94 480L122 480L122 510L68 510L68 540L35 540L35 570L34 570L34 600L0 600L0 570L0 570L0 540L0 540L0 510L0 510L0 480L0 480L0 450L0 450L0 420L0 420L0 390L0 390L0 360L0 360L0 330L0 330L0 300L0 300L0 270L0 270L0 240L0 240L0 210L0 210L0 180L0 180L0 150L0 150L0 120L0 120L0 90L0 90L0 60L0 60L0 30L0 30L0 0L0 0Z" fill="#4646cd"></path></svg>